<svg width="26" height="24" viewBox="0 0 26 24" fill="none" xmlns="http://www.w3.org/2000/svg">
<path d="M23.8875 2.74035C22.5233 1.37606 20.7097 0.625305 18.7803 0.625305C16.8507 0.625305 15.0369 1.37606 13.6722 2.74035L13 3.41275L12.3277 2.74035C10.9634 1.37606 9.14922 0.625305 7.21997 0.625305C5.29079 0.625305 3.47648 1.37606 2.11232 2.74035C-0.704149 5.5571 -0.704149 10.1401 2.11232 12.9557L12.2045 23.048C12.3695 23.2136 12.575 23.315 12.7896 23.3541C12.8616 23.3683 12.9339 23.3749 13.0065 23.3749C13.292 23.3749 13.5779 23.266 13.7954 23.048L23.8876 12.9557C26.7042 10.1401 26.7042 5.5571 23.8875 2.74035Z" fill="white"/>
</svg>
