<svg width="26" height="26" viewBox="0 0 26 26" fill="none" xmlns="http://www.w3.org/2000/svg">
<g clip-path="url(#clip0)">
<path d="M23.8875 3.74035C22.5233 2.37606 20.7098 1.62531 18.7804 1.62531C16.8507 1.62531 15.0369 2.37606 13.6722 3.74035L13 4.41275L12.3277 3.74035C10.9634 2.37606 9.14925 1.62531 7.22 1.62531C5.29083 1.62531 3.47651 2.37606 2.11235 3.74035C-0.704118 6.5571 -0.704118 11.1401 2.11235 13.9557L12.2046 24.048C12.3696 24.2136 12.575 24.315 12.7896 24.3541C12.8616 24.3683 12.934 24.3749 13.0065 24.3749C13.292 24.3749 13.578 24.266 13.7954 24.048L23.8876 13.9557C26.7042 11.1401 26.7042 6.5571 23.8875 3.74035ZM22.3097 12.378L13.0001 21.6878L3.69017 12.378C1.74377 10.4318 1.74377 7.26539 3.69017 5.31823C4.63297 4.37557 5.88693 3.85706 7.22 3.85706C8.55321 3.85706 9.80683 4.37557 10.7493 5.31823L12.2111 6.7805C12.6301 7.1989 13.3704 7.1989 13.7894 6.7805L15.2506 5.31823C16.1931 4.37557 17.4468 3.85706 18.7804 3.85706C20.1137 3.85706 21.3672 4.37557 22.3097 5.31823C24.2563 7.26539 24.2563 10.4318 22.3097 12.378Z" fill="black"/>
</g>
<defs>
<clipPath id="clip0">
<rect width="26" height="26" fill="white"/>
</clipPath>
</defs>
</svg>
