<svg width="26" height="24" viewBox="0 0 26 24" fill="none" xmlns="http://www.w3.org/2000/svg">
<path d="M23.8875 2.74035C22.5233 1.37606 20.7097 0.625305 18.7803 0.625305C16.8507 0.625305 15.0369 1.37606 13.6722 2.74035L13 3.41275L12.3277 2.74035C10.9634 1.37606 9.14921 0.625305 7.21997 0.625305C5.29079 0.625305 3.47648 1.37606 2.11232 2.74035C-0.704148 5.5571 -0.704148 10.1401 2.11232 12.9557L12.2045 23.048C12.3695 23.2136 12.575 23.315 12.7896 23.3541C12.8616 23.3683 12.9339 23.3749 13.0065 23.3749C13.292 23.3749 13.5779 23.266 13.7954 23.048L23.8876 12.9557C26.7042 10.1401 26.7042 5.5571 23.8875 2.74035ZM22.3097 11.378L13 20.6878L3.69014 11.378C1.74374 9.43185 1.74374 6.26539 3.69014 4.31823C4.63294 3.37557 5.8869 2.85706 7.21997 2.85706C8.55318 2.85706 9.8068 3.37557 10.7493 4.31823L12.211 5.7805C12.6301 6.1989 13.3704 6.1989 13.7893 5.7805L15.2506 4.31823C16.1931 3.37557 17.4468 2.85706 18.7804 2.85706C20.1136 2.85706 21.3672 3.37557 22.3097 4.31823C24.2563 6.26539 24.2563 9.43178 22.3097 11.378Z" fill="white"/>
</svg>
